<svg xmlns="http://www.w3.org/2000/svg" version="1.1" xmlns:xlink="http://www.w3.org/1999/xlink" xmlns:svgjs="http://svgjs.dev/svgjs" width="1500" height="1500" viewBox="0 0 1500 1500"><rect width="1500" height="1500" fill="#000000"></rect><g transform="matrix(0.6666666666666666,0,0,0.6666666666666666,249.39393939393938,574.0460967770654)"><svg viewBox="0 0 396 139" data-background-color="#ffffff" preserveAspectRatio="xMidYMid meet" height="526" width="1500" xmlns="http://www.w3.org/2000/svg" xmlns:xlink="http://www.w3.org/1999/xlink"><g id="tight-bounds" transform="matrix(1,0,0,1,0.2400000000000091,0.24598635357773446)"><svg viewBox="0 0 395.52 138.50802729284453" height="138.50802729284453" width="395.52"><g><svg viewBox="0 0 683.3937186047448 239.31916420981116" height="138.50802729284453" width="395.52"><g transform="matrix(1,0,0,1,287.8737186047448,17.296390156666902)"><svg viewBox="0 0 395.52 204.72638389647736" height="204.72638389647736" width="395.52"><g id="textblocktransform"><svg viewBox="0 0 395.52 204.72638389647736" height="204.72638389647736" width="395.52" id="textblock"><g><svg viewBox="0 0 395.52 204.72638389647736" height="204.72638389647736" width="395.52"><g transform="matrix(1,0,0,1,0,0)"><svg width="395.52" viewBox="1.85 -36 69.55000000000001 36" height="204.72638389647736" data-palette-color="#0074d9"><path d="M24.8-24.55L24.8-11.35 20.75-11.35 19.9-16.05 13.05-16.05 13.05-4.1 18.9-3.15 18.9 0 1.85 0 1.85-2.9 6.55-4.1 6.55-32.05 1.85-33.1 1.85-36 31.5-36 31.5-25.3 27.3-25.3 25.7-32.35 13.05-32.35 13.05-19.8 19.9-19.8 20.75-24.55 24.8-24.55ZM71.4-33.1L67.2-32.05 67.2-3.95 71.4-2.9 71.4 0 56.5 0 56.5-2.9 60.7-3.95 60.7-16.65 45.25-16.65 45.25-3.95 49.45-2.9 49.45 0 34.55 0 34.55-2.9 38.75-3.95 38.75-32.05 34.55-33.1 34.55-36 49.45-36 49.45-33.1 45.25-32.05 45.25-20.3 60.7-20.3 60.7-32.05 56.5-33.1 56.5-36 71.4-36 71.4-33.1Z" opacity="1" transform="matrix(1,0,0,1,0,0)" fill="#ffffff" class="wordmark-text-0" data-fill-palette-color="primary" id="text-0"></path></svg></g></svg></g></svg></g></svg></g><g><svg viewBox="0 0 239.54273279999998 239.31916420981116" height="239.31916420981116" width="239.54273279999998"><g><svg xmlns="http://www.w3.org/2000/svg" xmlns:xlink="http://www.w3.org/1999/xlink" version="1.1" x="0" y="0" viewBox="5.047 5.668749999999999 89.73400000000001 89.65025" enable-background="new 0 0 100 100" xml:space="preserve" height="239.31916420981116" width="239.54273279999998" class="icon-icon-0" data-fill-palette-color="accent" id="icon-0"><g fill="#0074d9" data-fill-palette-color="accent"><path d="M94.281 17.854L73.418 5.803c-0.309-0.179-0.691-0.179-1 0L51.549 17.853c-0.311 0.179-0.5 0.509-0.5 0.866v24.096c0 0.357 0.189 0.688 0.5 0.866L72.418 55.73c0.154 0.09 0.326 0.135 0.5 0.135 0.172 0 0.346-0.045 0.5-0.135l20.863-12.05c0.309-0.178 0.5-0.508 0.5-0.866V18.719C94.781 18.362 94.59 18.032 94.281 17.854zM92.781 42.238L72.918 53.71 53.049 42.238V19.296L72.918 7.823l19.863 11.473V42.238zM48.777 42.815V18.719c0-0.357-0.189-0.688-0.5-0.866L27.414 5.803c-0.311-0.179-0.691-0.178-1 0L5.547 17.853c-0.311 0.179-0.5 0.509-0.5 0.866v24.096c0 0.357 0.189 0.688 0.5 0.866L26.414 55.73c0.154 0.09 0.326 0.135 0.5 0.135 0.172 0 0.346-0.045 0.5-0.135l20.863-12.05C48.588 43.502 48.777 43.172 48.777 42.815zM46.777 37.228L22.35 51.075l-3.762-2.172 28.189-15.917V37.228zM46.777 32.125L17.834 48.467l-3.713-2.144 32.656-18.537V32.125zM13.367 45.888l-3.766-2.175 37.176-21.216v4.427L13.367 45.888zM7.047 28.786v-4.379l24.516-13.897 3.768 2.176L7.047 28.786zM36.082 13.119l3.883 2.243L7.047 33.838v-4.189L36.082 13.119zM7.047 34.699l33.674-18.901 3.633 2.099L7.047 39.013V34.699zM26.914 7.823l3.896 2.25L7.047 23.544v-4.248L26.914 7.823zM7.047 39.874l38.061-21.542 1.67 0.965v2.336L8.85 43.279l-1.803-1.041V39.874zM26.914 53.71l-3.811-2.2 23.674-13.42v4.148L26.914 53.71zM71.203 57.307L50.346 45.259c-0.309-0.179-0.689-0.179-1 0L28.477 57.307c-0.309 0.18-0.5 0.51-0.5 0.867V82.27c0 0.357 0.191 0.688 0.5 0.865l20.869 12.049c0.154 0.09 0.328 0.135 0.5 0.135 0.174 0 0.346-0.045 0.5-0.135l20.857-12.049c0.311-0.178 0.5-0.508 0.5-0.865V58.174C71.703 57.816 71.514 57.486 71.203 57.307zM69.703 81.691L49.846 93.164 29.977 81.691V58.75l19.869-11.47 19.857 11.47V81.691zM27.732 54.865" fill="#ffffff" data-fill-palette-color="accent"></path></g></svg></g></svg></g></svg></g><defs></defs></svg><rect width="395.52" height="138.50802729284453" fill="none" stroke="none" visibility="hidden"></rect></g></svg></g></svg>