<svg xmlns="http://www.w3.org/2000/svg" version="1.1" xmlns:xlink="http://www.w3.org/1999/xlink" xmlns:svgjs="http://svgjs.dev/svgjs" width="1500" height="291" viewBox="0 0 1500 291"><g transform="matrix(1,0,0,1,-0.9090909090909918,0.6951507929021261)"><svg viewBox="0 0 396 77" data-background-color="#ffffff" preserveAspectRatio="xMidYMid meet" height="291" width="1500" xmlns="http://www.w3.org/2000/svg" xmlns:xlink="http://www.w3.org/1999/xlink"><g id="tight-bounds" transform="matrix(1,0,0,1,0.2400000000000091,-0.18394024416997468)"><svg viewBox="0 0 395.52 77.36788048833994" height="77.36788048833994" width="395.52"><g><svg viewBox="0 0 514.3780013547823 100.61775822878226" height="77.36788048833994" width="395.52"><g transform="matrix(1,0,0,1,118.85800135478232,11.875816383763826)"><svg viewBox="0 0 395.52 76.86612546125461" height="76.86612546125461" width="395.52"><g id="textblocktransform"><svg viewBox="0 0 395.52 76.86612546125461" height="76.86612546125461" width="395.52" id="textblock"><g><svg viewBox="0 0 395.52 76.86612546125461" height="76.86612546125461" width="395.52"><g transform="matrix(1,0,0,1,0,0)"><svg width="395.52" viewBox="1.85 -39 203.23000000000002 39.5" height="76.86612546125461" data-palette-color="#0074d9"><path d="M24.8-24.55L24.8-11.35 20.75-11.35 19.9-16.05 13.05-16.05 13.05-4.1 18.9-3.15 18.9 0 1.85 0 1.85-2.9 6.55-4.1 6.55-32.05 1.85-33.1 1.85-36 31.5-36 31.5-25.3 27.3-25.3 25.7-32.35 13.05-32.35 13.05-19.8 19.9-19.8 20.75-24.55 24.8-24.55ZM37.9-3.75L37.9-23.25 34.05-24.2 34.05-27 44.25-27 44.25-3.75 48.1-2.8 48.1 0 34.05 0 34.05-2.8 37.9-3.75ZM37.35-34.6L37.35-34.6Q37.35-36.2 38.32-37.2 39.3-38.2 41.05-38.2L41.05-38.2Q42.8-38.2 43.8-37.2 44.8-36.2 44.8-34.6L44.8-34.6Q44.8-33.05 43.82-32.05 42.85-31.05 41.05-31.05L41.05-31.05Q39.25-31.05 38.3-32.02 37.35-33 37.35-34.6ZM50.15-2.85L54-3.8 54-35.2 50.15-36.15 50.15-39 60.34-39 60.34-3.8 64.2-2.85 64.2 0 50.15 0 50.15-2.85ZM91.24-12.8L91.24-12.8 73.79-12.8Q73.79-9.4 74.79-7.15L74.79-7.15Q75.59-5.45 76.94-4.53 78.29-3.6 80.29-3.6L80.29-3.6Q82.49-3.6 84.67-4.6 86.84-5.6 88.39-7.6L88.39-7.6 91.09-5.5Q89.34-3 86.37-1.25 83.39 0.5 79.04 0.5L79.04 0.5Q75.39 0.5 72.74-0.98 70.09-2.45 68.69-5.3L68.69-5.3Q67.94-6.85 67.59-8.75 67.24-10.65 67.24-12.85L67.24-12.85Q67.24-19.85 70.47-23.68 73.69-27.5 79.59-27.5L79.59-27.5Q85.04-27.5 88.22-24.33 91.39-21.15 91.39-15.55L91.39-15.55Q91.39-15 91.37-14.48 91.34-13.95 91.24-12.8ZM79.49-24.05L79.49-24.05Q74.34-24.05 73.84-16L73.84-16 84.84-16 84.84-17.3Q84.84-20.55 83.42-22.3 81.99-24.05 79.49-24.05ZM131.49-33.1L127.29-32.05 127.29-3.95 131.49-2.9 131.49 0 116.59 0 116.59-2.9 120.79-3.95 120.79-16.65 105.34-16.65 105.34-3.95 109.54-2.9 109.54 0 94.64 0 94.64-2.9 98.84-3.95 98.84-32.05 94.64-33.1 94.64-36 109.54-36 109.54-33.1 105.34-32.05 105.34-20.3 120.79-20.3 120.79-32.05 116.59-33.1 116.59-36 131.49-36 131.49-33.1ZM138.94-3.75L138.94-23.25 135.09-24.2 135.09-27 145.29-27 145.29-3.75 149.14-2.8 149.14 0 135.09 0 135.09-2.8 138.94-3.75ZM138.39-34.6L138.39-34.6Q138.39-36.2 139.36-37.2 140.34-38.2 142.09-38.2L142.09-38.2Q143.84-38.2 144.84-37.2 145.84-36.2 145.84-34.6L145.84-34.6Q145.84-33.05 144.86-32.05 143.89-31.05 142.09-31.05L142.09-31.05Q140.29-31.05 139.34-32.02 138.39-33 138.39-34.6ZM176.64-23.25L167.99 0.5 161.34 0.5 152.69-23.3 149.89-24.25 149.89-27.05 162.59-27.05 162.59-24.25 159.29-23.3 165.29-4.95 165.49-4.95 171.64-23.25 168.54-24.2 168.54-27 179.54-27 179.54-24.2 176.64-23.25ZM204.93-12.8L204.93-12.8 187.48-12.8Q187.48-9.4 188.48-7.15L188.48-7.15Q189.28-5.45 190.63-4.53 191.98-3.6 193.98-3.6L193.98-3.6Q196.18-3.6 198.36-4.6 200.53-5.6 202.08-7.6L202.08-7.6 204.78-5.5Q203.03-3 200.06-1.25 197.08 0.5 192.73 0.5L192.73 0.5Q189.08 0.5 186.43-0.98 183.78-2.45 182.38-5.3L182.38-5.3Q181.63-6.85 181.28-8.75 180.93-10.65 180.93-12.85L180.93-12.85Q180.93-19.85 184.16-23.68 187.38-27.5 193.28-27.5L193.28-27.5Q198.73-27.5 201.91-24.33 205.08-21.15 205.08-15.55L205.08-15.55Q205.08-15 205.06-14.48 205.03-13.95 204.93-12.8ZM193.18-24.05L193.18-24.05Q188.03-24.05 187.53-16L187.53-16 198.53-16 198.53-17.3Q198.53-20.55 197.11-22.3 195.68-24.05 193.18-24.05Z" opacity="1" transform="matrix(1,0,0,1,0,0)" fill="#0074d9" class="wordmark-text-0" data-fill-palette-color="primary" id="text-0"></path></svg></g></svg></g></svg></g></svg></g><g><svg viewBox="0 0 100.71175392039117 100.61775822878226" height="100.61775822878226" width="100.71175392039117"><g><svg xmlns="http://www.w3.org/2000/svg" xmlns:xlink="http://www.w3.org/1999/xlink" version="1.1" x="0" y="0" viewBox="5.047 5.668749999999999 89.73400000000001 89.65025" enable-background="new 0 0 100 100" xml:space="preserve" height="100.61775822878226" width="100.71175392039117" class="icon-icon-0" data-fill-palette-color="accent" id="icon-0"><g fill="#0074d9" data-fill-palette-color="accent"><path d="M94.281 17.854L73.418 5.803c-0.309-0.179-0.691-0.179-1 0L51.549 17.853c-0.311 0.179-0.5 0.509-0.5 0.866v24.096c0 0.357 0.189 0.688 0.5 0.866L72.418 55.73c0.154 0.09 0.326 0.135 0.5 0.135 0.172 0 0.346-0.045 0.5-0.135l20.863-12.05c0.309-0.178 0.5-0.508 0.5-0.866V18.719C94.781 18.362 94.59 18.032 94.281 17.854zM92.781 42.238L72.918 53.71 53.049 42.238V19.296L72.918 7.823l19.863 11.473V42.238zM48.777 42.815V18.719c0-0.357-0.189-0.688-0.5-0.866L27.414 5.803c-0.311-0.179-0.691-0.178-1 0L5.547 17.853c-0.311 0.179-0.5 0.509-0.5 0.866v24.096c0 0.357 0.189 0.688 0.5 0.866L26.414 55.73c0.154 0.09 0.326 0.135 0.5 0.135 0.172 0 0.346-0.045 0.5-0.135l20.863-12.05C48.588 43.502 48.777 43.172 48.777 42.815zM46.777 37.228L22.35 51.075l-3.762-2.172 28.189-15.917V37.228zM46.777 32.125L17.834 48.467l-3.713-2.144 32.656-18.537V32.125zM13.367 45.888l-3.766-2.175 37.176-21.216v4.427L13.367 45.888zM7.047 28.786v-4.379l24.516-13.897 3.768 2.176L7.047 28.786zM36.082 13.119l3.883 2.243L7.047 33.838v-4.189L36.082 13.119zM7.047 34.699l33.674-18.901 3.633 2.099L7.047 39.013V34.699zM26.914 7.823l3.896 2.25L7.047 23.544v-4.248L26.914 7.823zM7.047 39.874l38.061-21.542 1.67 0.965v2.336L8.85 43.279l-1.803-1.041V39.874zM26.914 53.71l-3.811-2.2 23.674-13.42v4.148L26.914 53.71zM71.203 57.307L50.346 45.259c-0.309-0.179-0.689-0.179-1 0L28.477 57.307c-0.309 0.18-0.5 0.51-0.5 0.867V82.27c0 0.357 0.191 0.688 0.5 0.865l20.869 12.049c0.154 0.09 0.328 0.135 0.5 0.135 0.174 0 0.346-0.045 0.5-0.135l20.857-12.049c0.311-0.178 0.5-0.508 0.5-0.865V58.174C71.703 57.816 71.514 57.486 71.203 57.307zM69.703 81.691L49.846 93.164 29.977 81.691V58.75l19.869-11.47 19.857 11.47V81.691zM27.732 54.865" fill="#0074d9" data-fill-palette-color="accent"></path></g></svg></g></svg></g></svg></g><defs></defs></svg><rect width="395.52" height="77.36788048833994" fill="none" stroke="none" visibility="hidden"></rect></g></svg></g></svg>